<?xml version="1.0" standalone="no"?>
<!DOCTYPE svg PUBLIC "-//W3C//DTD SVG 20010904//EN"
 "http://www.w3.org/TR/2001/REC-SVG-20010904/DTD/svg10.dtd">
<svg version="1.0" xmlns="http://www.w3.org/2000/svg"
 width="1002.000000pt" height="720.000000pt" viewBox="0 0 1002.000000 720.000000"
 preserveAspectRatio="xMidYMid meet">

<g transform="translate(0.000000,720.000000) scale(0.100000,-0.100000)"
fill="#000000" stroke="none">
<path d="M610 6850 c-24 -24 -24 -29 -4 -58 18 -26 56 -29 78 -6 20 19 20 34
0 62 -19 27 -48 28 -74 2z"/>
<path d="M1351 6814 c-24 -30 -24 -34 -12 -67 11 -29 32 -39 88 -42 l42 -3 -1
44 c-1 86 -72 126 -117 68z m70 -4 c13 -8 19 -21 19 -45 0 -32 -3 -35 -28 -35
-15 0 -33 5 -40 12 -18 18 -15 55 6 67 21 13 20 13 43 1z"/>
<path d="M1385 6781 c-6 -11 9 -23 19 -14 9 9 7 23 -3 23 -6 0 -12 -4 -16 -9z"/>
<path d="M3561 6813 c-1 -18 -7 -23 -28 -24 l-28 -1 25 -7 c16 -4 26 -16 29
-31 l4 -25 6 25 c4 14 17 27 31 31 l25 7 -27 1 c-19 1 -28 7 -31 24 l-4 22 -2
-22z"/>
<path d="M1568 6813 c7 -3 16 -2 19 1 4 3 -2 6 -13 5 -11 0 -14 -3 -6 -6z"/>
<path d="M1760 6816 c0 -2 9 -6 20 -9 11 -3 18 -1 14 4 -5 9 -34 13 -34 5z"/>
<path d="M1568 6773 c7 -3 16 -2 19 1 4 3 -2 6 -13 5 -11 0 -14 -3 -6 -6z"/>
<path d="M1210 6505 c-28 -34 1 -105 44 -105 17 0 56 29 56 42 0 7 -6 4 -13
-6 -9 -12 -23 -17 -47 -14 -30 3 -35 7 -38 31 -2 16 2 35 9 43 14 18 65 15 62
-3 -2 -7 6 -13 17 -13 11 0 20 6 20 14 0 27 -89 36 -110 11z"/>
<path d="M8596 6503 c-4 -12 -17 -24 -29 -26 -22 -4 -22 -4 1 -6 12 0 25 5 28
13 4 12 9 11 25 -5 12 -12 25 -17 32 -12 8 5 5 9 -9 11 -12 2 -26 13 -31 25
l-10 22 -7 -22z"/>
<path d="M641 6486 l-22 -24 23 -24 c13 -13 17 -17 11 -8 -20 25 -16 29 35 33
l47 3 -49 2 c-48 2 -49 2 -31 22 26 28 13 25 -14 -4z"/>
<path d="M2354 6495 c-4 -8 -14 -15 -24 -15 -21 0 -34 -29 -24 -54 4 -10 17
-16 35 -16 28 0 29 2 29 50 0 50 -6 63 -16 35z m-4 -50 c0 -25 -23 -35 -35
-15 -10 16 2 40 20 40 9 0 15 -9 15 -25z"/>
<path d="M1580 6450 c0 -27 3 -30 30 -30 27 0 30 3 30 30 0 27 -3 30 -30 30
-27 0 -30 -3 -30 -30z"/>
<path d="M2191 6443 c2 -35 2 -35 6 -8 3 16 10 33 16 37 8 5 6 8 -5 8 -14 0
-18 -8 -17 -37z"/>
<path d="M2234 6466 c-10 -26 1 -51 24 -54 12 -2 22 1 22 6 0 6 -9 8 -20 5
-16 -4 -20 0 -20 21 0 16 5 26 15 26 8 0 15 -4 15 -10 0 -5 4 -10 10 -10 5 0
7 7 4 15 -8 19 -43 20 -50 1z"/>
<path d="M2385 6460 c-8 -25 10 -50 35 -50 10 0 21 -6 23 -12 3 -7 6 8 6 35 1
46 0 47 -28 47 -21 0 -32 -6 -36 -20z m53 -13 c4 -20 -25 -34 -40 -19 -15 15
-1 44 19 40 10 -2 19 -11 21 -21z"/>
<path d="M2513 6445 c0 -22 2 -30 4 -17 2 12 2 30 0 40 -3 9 -5 -1 -4 -23z"/>
<path d="M2547 6473 c-13 -12 -7 -54 9 -60 23 -8 47 20 39 46 -6 20 -34 28
-48 14z m38 -28 c0 -11 -8 -21 -17 -23 -14 -3 -18 3 -18 23 0 20 4 26 18 23 9
-2 17 -12 17 -23z"/>
<path d="M2626 6444 c-4 -14 -5 -28 -3 -31 3 -2 8 8 11 23 4 14 5 28 3 31 -3
2 -8 -8 -11 -23z"/>
<path d="M8625 6430 c-3 -5 -1 -10 4 -10 6 0 11 5 11 10 0 6 -2 10 -4 10 -3 0
-8 -4 -11 -10z"/>
<path d="M9315 6410 c3 -5 8 -10 11 -10 2 0 4 5 4 10 0 6 -5 10 -11 10 -5 0
-7 -4 -4 -10z"/>
<path d="M9272 6140 c-6 -11 -12 -29 -12 -40 0 -21 15 -27 25 -10 9 15 35 12
35 -4 0 -8 -11 -17 -25 -20 -34 -9 -32 -38 4 -59 29 -17 30 -17 51 5 15 17 20
33 18 63 l-3 40 -44 -3 c-33 -3 -42 -1 -39 10 3 7 14 14 26 16 12 2 20 8 17
13 -10 16 -40 10 -53 -11z m45 -95 c0 -8 -4 -15 -8 -15 -11 0 -20 16 -12 24
11 11 20 7 20 -9z"/>
<path d="M3450 6091 c0 -6 5 -13 10 -16 6 -3 10 1 10 9 0 9 -4 16 -10 16 -5 0
-10 -4 -10 -9z"/>
<path d="M3498 6070 c-9 -17 -13 -30 -8 -30 5 0 12 10 16 23 l8 22 7 -25 c7
-23 7 -23 8 8 1 40 -9 41 -31 2z"/>
<path d="M3620 6061 c0 -25 6 -27 13 -6 4 8 2 17 -3 20 -6 4 -10 -3 -10 -14z"/>
<path d="M3665 6070 c-3 -5 -1 -10 4 -10 6 0 11 5 11 10 0 6 -2 10 -4 10 -3 0
-8 -4 -11 -10z"/>
<path d="M3695 6070 c-4 -6 -4 -14 -1 -17 3 -4 6 -1 6 5 0 19 28 14 34 -5 4
-14 4 -14 3 2 -2 22 -31 32 -42 15z"/>
<path d="M3760 6076 c0 -2 7 -6 15 -10 8 -3 15 -1 15 4 0 6 -7 10 -15 10 -8 0
-15 -2 -15 -4z"/>
<path d="M3806 6073 c6 -4 14 -15 17 -23 5 -11 6 -9 4 4 -1 11 -9 21 -17 23
-10 3 -11 2 -4 -4z"/>
<path d="M3843 6065 c-3 -9 -3 -19 1 -22 3 -4 6 2 6 11 0 12 5 16 16 12 8 -3
12 -2 9 4 -9 15 -25 12 -32 -5z"/>
<path d="M9242 6001 c-11 -6 -10 -10 4 -15 20 -8 32 0 18 14 -5 5 -15 5 -22 1z"/>
<path d="M850 5515 c0 -15 23 -90 31 -99 4 -5 13 10 20 33 7 22 15 41 19 41 4
0 12 -19 19 -41 7 -23 16 -38 20 -33 10 11 32 97 26 102 -2 2 -8 -11 -13 -29
-10 -41 -24 -41 -36 0 -12 41 -20 39 -36 -10 l-14 -41 -13 38 c-13 37 -23 54
-23 39z"/>
<path d="M1093 5465 c0 -33 2 -45 4 -27 2 18 2 45 0 60 -2 15 -4 0 -4 -33z"/>
<path d="M1553 5470 c0 -30 2 -43 4 -27 5 34 33 36 33 2 0 -14 5 -25 10 -25
14 0 13 43 -1 57 -6 6 -17 9 -24 6 -8 -3 -15 5 -18 19 -2 13 -4 -2 -4 -32z"/>
<path d="M1982 5508 c-7 -7 -12 -27 -12 -45 0 -41 30 -61 68 -44 13 7 22 14
19 17 -3 3 -14 1 -23 -4 -41 -23 -75 38 -39 68 12 10 21 10 42 1 23 -11 25
-10 13 3 -15 19 -51 21 -68 4z"/>
<path d="M2082 5470 c0 -37 2 -47 7 -30 10 36 39 38 44 3 4 -27 4 -27 6 5 1
30 -6 37 -36 33 -6 -1 -14 9 -16 21 -2 13 -4 -2 -5 -32z"/>
<path d="M2562 5470 c0 -37 2 -47 7 -30 11 39 39 38 44 -2 l4 -33 1 38 c2 36
-4 42 -35 38 -6 -1 -14 9 -16 21 -2 13 -4 -2 -5 -32z"/>
<path d="M2331 5486 c-8 -10 -9 -16 -1 -21 5 -3 10 -15 10 -25 0 -10 4 -21 9
-24 8 -5 7 72 -2 80 -2 3 -10 -2 -16 -10z"/>
<path d="M1016 5474 c-20 -19 -20 -29 0 -48 17 -18 30 -20 38 -7 3 5 -2 8 -12
7 -11 -1 -17 6 -17 22 0 12 5 22 10 21 6 -1 9 -5 8 -10 -2 -5 4 -9 12 -9 21 0
19 17 -4 30 -15 7 -23 6 -35 -6z"/>
<path d="M1136 5474 c-9 -8 -16 -19 -16 -24 0 -11 29 -40 40 -40 5 0 11 4 14
9 3 5 -2 8 -12 7 -11 0 -18 7 -20 22 -3 17 2 22 18 22 12 0 18 5 15 10 -9 14
-21 12 -39 -6z"/>
<path d="M1215 5474 c-19 -19 -16 -43 7 -57 20 -13 48 6 48 34 0 28 -35 43
-55 23z m45 -23 c0 -26 -17 -36 -35 -21 -18 15 -8 40 16 40 12 0 19 -7 19 -19z"/>
<path d="M1354 5482 c-17 -2 -20 -8 -15 -35 4 -31 5 -31 11 -7 9 39 38 38 43
-2 l4 -33 1 36 c2 39 -8 47 -44 41z"/>
<path d="M1435 5476 c-20 -15 -17 -45 7 -60 13 -8 21 -7 30 3 11 10 9 12 -7 9
-15 -2 -20 3 -20 20 0 12 5 22 10 21 6 -1 9 -5 8 -10 -2 -5 4 -9 12 -9 17 0
10 26 -10 34 -7 2 -21 -1 -30 -8z"/>
<path d="M1642 5478 c-11 -11 -17 -58 -8 -58 2 0 11 -3 19 -6 14 -5 47 20 47
36 0 10 -29 40 -39 40 -4 0 -12 -5 -19 -12z m36 -30 c-2 -13 -10 -23 -18 -23
-8 0 -16 10 -18 23 -3 17 2 22 18 22 16 0 21 -5 18 -22z"/>
<path d="M1758 5482 c-37 -3 -38 -4 -36 -40 l1 -37 4 33 c5 40 33 44 34 5 l1
-28 7 25 c11 39 39 38 44 -2 l4 -33 1 36 c2 41 -5 46 -60 41z"/>
<path d="M1856 5474 c-20 -19 -20 -29 0 -48 18 -19 24 -19 44 -6 12 8 10 10
-10 8 -19 -2 -25 2 -26 20 -2 27 14 40 22 18 7 -17 24 -22 24 -6 0 5 -9 14
-19 20 -15 7 -23 6 -35 -6z"/>
<path d="M2263 5474 c-4 -10 0 -20 10 -26 22 -12 22 -29 0 -21 -15 5 -16 3 -6
-7 10 -11 15 -11 28 0 15 13 14 15 -7 32 -20 15 -20 18 -5 18 10 0 15 5 12 10
-9 15 -25 12 -32 -6z"/>
<path d="M2395 5476 c-20 -15 -17 -44 7 -59 12 -8 21 -7 32 2 36 30 -1 85 -39
57z m36 -40 c-16 -19 -41 -10 -41 14 0 24 21 31 39 14 11 -10 12 -16 2 -28z"/>
<path d="M2655 5476 c-20 -15 -17 -45 7 -60 13 -8 21 -7 30 3 11 10 10 12 -2
11 -30 -4 -41 0 -33 13 4 6 8 15 8 20 0 4 5 7 10 6 6 -1 9 -5 8 -10 -2 -5 4
-9 12 -9 17 0 10 26 -10 34 -7 2 -21 -1 -30 -8z"/>
<path d="M1300 5450 c0 -16 2 -30 4 -30 2 0 6 14 8 30 3 17 1 30 -4 30 -4 0
-8 -13 -8 -30z"/>
<path d="M2171 5448 c2 -28 2 -29 6 -8 3 14 10 28 17 32 7 5 5 8 -6 8 -14 0
-18 -8 -17 -32z"/>
<path d="M2222 5450 c0 -19 2 -27 5 -17 2 9 2 25 0 35 -3 9 -5 1 -5 -18z"/>
<path d="M2471 5433 c1 -27 3 -41 6 -32 2 10 11 15 22 12 23 -6 44 21 36 47
-4 14 -15 20 -36 20 -28 0 -29 -1 -28 -47z m55 26 c8 -14 -21 -43 -35 -35 -6
4 -11 16 -11 27 0 21 34 27 46 8z"/>
<path d="M2731 5443 c2 -35 2 -35 6 -8 3 16 10 33 16 37 8 5 6 8 -5 8 -14 0
-18 -8 -17 -37z"/>
<path d="M2786 5415 c4 -8 8 -15 10 -15 2 0 4 7 4 15 0 8 -4 15 -10 15 -5 0
-7 -7 -4 -15z"/>
<path d="M2909 5258 c-3 -65 -5 -73 -19 -73 -10 0 -15 10 -15 28 1 23 -1 25
-13 13 -21 -21 1 -56 33 -54 23 2 25 6 25 55 0 51 -9 76 -11 31z"/>
<path d="M1146 5240 c3 -56 6 -66 13 -35 7 31 3 65 -8 65 -3 0 -5 -13 -5 -30z"/>
<path d="M2753 5263 c12 -3 16 -11 12 -23 -3 -11 0 -20 10 -23 8 -4 12 -13 9
-22 -7 -17 -34 -21 -34 -5 0 6 -5 10 -11 10 -8 0 -8 -5 1 -15 16 -19 34 -19
51 1 10 13 10 20 0 36 -9 15 -9 23 0 34 9 12 6 14 -22 13 -19 -1 -26 -3 -16
-6z"/>
<path d="M1239 5238 c-11 -8 -11 -9 3 -4 10 3 20 1 23 -4 3 -5 -4 -12 -15 -15
-24 -8 -23 -36 0 -42 12 -4 13 -3 1 5 -7 5 -10 15 -7 21 11 18 24 13 29 -11 3
-15 5 -10 6 13 1 39 -15 55 -40 37z"/>
<path d="M2959 5238 c-11 -8 -11 -9 3 -4 10 3 20 1 23 -4 3 -5 -4 -11 -15 -15
-11 -3 -20 -15 -20 -26 0 -14 6 -18 25 -17 21 2 25 7 25 34 0 34 -18 48 -41
32z m31 -37 c0 -12 -20 -25 -27 -18 -7 7 6 27 18 27 5 0 9 -4 9 -9z"/>
<path d="M3110 5235 c-9 -11 -7 -17 9 -27 27 -17 27 -31 0 -23 -15 5 -19 4
-15 -4 11 -16 36 -13 43 5 4 10 0 20 -10 26 -21 11 -22 29 -2 22 8 -4 15 -4
15 -1 0 13 -30 14 -40 2z"/>
<path d="M865 5213 c8 -17 12 -40 9 -50 -3 -10 4 -2 15 17 11 19 20 42 20 50
0 9 -5 6 -13 -8 l-13 -24 -16 24 c-17 22 -17 22 -2 -9z"/>
<path d="M934 5225 c-14 -35 24 -68 52 -44 18 15 15 51 -6 57 -13 5 -13 3 -1
-11 15 -19 8 -47 -13 -47 -19 0 -29 29 -15 46 9 11 9 14 0 14 -6 0 -14 -7 -17
-15z"/>
<path d="M1021 5213 c-1 -36 10 -47 39 -38 15 5 20 15 19 38 l-1 32 -7 -29
c-9 -41 -28 -43 -40 -4 l-9 33 -1 -32z"/>
<path d="M1188 5205 c2 -19 6 -35 8 -35 2 0 4 16 4 35 0 19 -4 35 -8 35 -4 0
-6 -16 -4 -35z"/>
<path d="M1311 5214 c5 -15 12 -31 16 -37 7 -11 32 31 32 53 0 8 -4 5 -10 -8
-9 -24 -29 -22 -29 4 0 8 -4 14 -10 14 -6 0 -6 -9 1 -26z"/>
<path d="M1384 5225 c-13 -32 25 -70 47 -48 6 6 3 9 -8 9 -28 -1 -27 19 1 22
17 2 23 8 19 18 -3 8 -9 14 -15 14 -5 0 -6 -4 -3 -10 3 -6 -4 -10 -17 -10 -18
0 -20 2 -8 10 10 7 11 10 2 10 -7 0 -15 -7 -18 -15z"/>
<path d="M1543 5233 c4 -6 -5 -15 -18 -21 -40 -18 -26 -50 15 -37 22 7 28 49
8 61 -6 4 -8 3 -5 -3z m-1 -45 c-6 -6 -16 -7 -22 -3 -9 6 -9 9 1 16 17 10 34
0 21 -13z"/>
<path d="M2582 5210 c0 -19 2 -27 5 -17 2 9 2 25 0 35 -3 9 -5 1 -5 -18z"/>
<path d="M2610 5210 c0 -16 5 -30 10 -30 6 0 10 14 10 30 0 17 -4 30 -10 30
-5 0 -10 -13 -10 -30z"/>
<path d="M2658 5210 c2 -16 6 -30 8 -30 2 0 4 14 4 30 0 17 -4 30 -8 30 -5 0
-7 -13 -4 -30z"/>
<path d="M3035 5211 c8 -17 12 -38 9 -48 -3 -10 4 -2 15 17 11 19 20 42 20 50
0 8 -4 5 -10 -8 -9 -24 -29 -22 -29 4 0 8 -5 14 -10 14 -6 0 -4 -13 5 -29z"/>
<path d="M1070 4626 c0 -2 -7 -21 -16 -42 -14 -34 -14 -37 0 -25 8 7 15 16 14
19 -2 21 3 32 13 27 6 -4 8 -12 6 -19 -3 -6 2 -17 9 -24 19 -17 18 1 -1 38
-14 26 -25 38 -25 26z"/>
<path d="M1440 4585 c0 -40 2 -45 23 -44 16 1 18 2 5 6 -13 3 -18 15 -18 39 0
31 3 35 23 32 18 -2 22 -9 21 -35 -1 -18 2 -30 7 -27 13 8 11 48 -3 62 -7 7
-22 12 -35 12 -21 0 -23 -5 -23 -45z"/>
<path d="M3909 4595 c-5 -53 -36 -62 -42 -13 l-4 33 1 -35 c1 -28 5 -36 23
-38 25 -4 38 27 31 69 -3 17 -6 12 -9 -16z"/>
<path d="M4471 4588 c1 -24 3 -35 6 -26 2 9 14 18 26 20 34 5 29 42 -5 46 -27
3 -28 2 -27 -40z m42 17 c1 -5 -6 -11 -15 -13 -11 -2 -18 3 -18 13 0 17 30 18
33 0z"/>
<path d="M6710 4609 c-11 -20 -12 -20 -25 -2 -8 10 -15 13 -15 6 0 -6 5 -15
10 -18 6 -3 10 -18 11 -33 l1 -27 7 26 c5 14 14 35 20 47 6 12 9 22 7 22 -3 0
-10 -9 -16 -21z"/>
<path d="M6971 4588 c0 -30 3 -37 8 -24 7 18 8 18 25 -5 15 -20 17 -21 12 -4
-3 11 -1 27 4 35 11 18 -6 40 -31 40 -16 0 -19 -7 -18 -42z m39 17 c0 -8 -7
-15 -15 -15 -8 0 -15 7 -15 15 0 8 7 15 15 15 8 0 15 -7 15 -15z"/>
<path d="M7461 4588 c1 -24 3 -35 6 -25 2 9 13 17 23 17 10 0 21 4 24 9 11 18
-6 41 -30 41 -22 0 -24 -4 -23 -42z m42 17 c1 -5 -6 -11 -15 -13 -11 -2 -18 3
-18 13 0 17 30 18 33 0z"/>
<path d="M2005 4610 c-3 -5 -2 -10 4 -10 5 0 12 -15 14 -32 3 -29 4 -27 5 10
2 39 -9 55 -23 32z"/>
<path d="M4929 4609 c-2 -24 2 -54 10 -61 3 -4 6 9 5 28 -2 35 -13 60 -15 33z"/>
<path d="M7187 4613 c-6 -11 4 -73 12 -73 7 0 6 69 -2 76 -3 3 -7 2 -10 -3z"/>
<path d="M1197 4603 c-3 -4 1 -21 8 -38 l12 -30 -2 33 c-2 34 -10 49 -18 35z"/>
<path d="M1837 4603 c-2 -5 -1 -19 3 -33 l6 -25 6 28 c5 26 -5 47 -15 30z"/>
<path d="M1134 4585 c-9 -23 3 -45 23 -44 17 1 17 2 1 6 -10 2 -18 13 -18 23
0 10 8 21 18 23 16 4 16 5 -1 6 -10 0 -20 -6 -23 -14z"/>
<path d="M1271 4595 c0 -5 6 -21 14 -35 l13 -25 12 29 c6 16 9 31 6 33 -2 3
-7 -6 -11 -18 l-7 -22 -14 24 c-7 13 -13 20 -13 14z"/>
<path d="M1344 4585 c-9 -23 3 -45 23 -44 17 1 17 2 1 6 -10 2 -18 13 -18 24
0 21 16 26 23 7 2 -7 8 -10 12 -6 10 10 -3 28 -21 28 -8 0 -17 -7 -20 -15z"/>
<path d="M1534 4586 c-9 -23 3 -46 23 -45 17 1 17 2 1 6 -22 6 -24 43 -2 43 8
0 12 -4 9 -10 -3 -5 -1 -10 5 -10 18 0 6 25 -13 28 -10 2 -20 -4 -23 -12z"/>
<path d="M1602 4558 l1 -43 4 38 c4 33 7 38 24 34 10 -3 17 -1 13 4 -3 5 -14
9 -25 9 -16 0 -19 -7 -17 -42z"/>
<path d="M1674 4585 c-8 -21 2 -45 19 -45 20 0 40 27 33 45 -7 19 -45 20 -52
0z m41 -15 c0 -8 -8 -16 -17 -18 -13 -2 -18 3 -18 18 0 15 5 20 18 18 9 -2 17
-10 17 -18z"/>
<path d="M1745 4591 c-3 -5 0 -13 6 -17 7 -4 9 -3 5 4 -3 6 2 13 11 15 16 4
16 5 1 6 -9 0 -19 -3 -23 -8z"/>
<path d="M1802 4575 c0 -16 2 -22 5 -12 2 9 2 23 0 30 -3 6 -5 -1 -5 -18z"/>
<path d="M1880 4583 c0 -10 4 -14 8 -8 4 6 11 13 16 18 5 4 2 7 -7 7 -10 0
-17 -8 -17 -17z"/>
<path d="M3940 4558 c0 -27 3 -38 9 -30 4 7 6 24 3 38 -3 18 0 24 13 24 13 0
16 -6 13 -25 -3 -13 -1 -22 3 -19 5 3 9 16 9 30 0 19 -5 24 -25 24 -23 0 -25
-4 -25 -42z"/>
<path d="M4014 4585 c-9 -22 3 -45 23 -45 15 0 15 1 -2 13 -20 15 -12 42 11
33 8 -3 14 -1 14 4 0 16 -40 11 -46 -5z"/>
<path d="M4084 4585 c-8 -21 2 -45 19 -45 21 0 38 25 31 44 -8 20 -43 21 -50
1z m41 -15 c0 -8 -8 -16 -17 -18 -13 -2 -18 3 -18 18 0 15 5 20 18 18 9 -2 17
-10 17 -18z"/>
<path d="M4151 4572 c0 -26 1 -26 9 -4 13 31 30 28 31 -5 1 -28 1 -28 8 -4 9
33 28 38 34 9 4 -21 4 -21 6 3 1 25 -2 27 -44 27 -43 1 -45 0 -44 -26z"/>
<path d="M4262 4575 c0 -16 2 -22 5 -12 2 9 2 23 0 30 -3 6 -5 -1 -5 -18z"/>
<path d="M4297 4593 c-11 -10 -8 -43 3 -43 6 0 10 9 10 21 0 15 5 19 15 15 8
-3 15 -1 15 4 0 11 -33 14 -43 3z"/>
<path d="M4366 4583 c-4 -9 -2 -21 3 -26 6 -6 9 -2 8 9 -1 11 4 19 13 19 24 0
21 -45 -4 -55 l-21 -9 21 0 c23 -1 34 16 34 55 0 19 -5 24 -24 24 -13 0 -27
-8 -30 -17z"/>
<path d="M4560 4592 c8 -4 17 -16 18 -27 6 -33 14 -33 10 0 -2 21 -9 31 -23
32 -15 2 -16 1 -5 -5z"/>
<path d="M4616 4585 c4 -11 7 -31 7 -45 -1 -23 0 -22 18 10 21 41 25 62 5 35
-13 -18 -13 -18 -25 1 -12 18 -12 18 -5 -1z"/>
<path d="M4681 4572 c2 -25 2 -25 6 -4 6 29 25 24 34 -9 7 -23 7 -23 8 5 1 21
5 27 16 22 8 -3 15 -2 15 3 0 5 -18 9 -40 9 -37 1 -40 -1 -39 -26z"/>
<path d="M4785 4590 c-12 -19 6 -50 28 -49 20 0 21 1 3 8 -23 9 -31 41 -10 41
8 0 14 -4 14 -10 0 -5 4 -10 10 -10 5 0 7 7 4 15 -7 17 -40 20 -49 5z"/>
<path d="M4854 4589 c-4 -8 0 -9 15 -4 17 5 21 2 21 -14 0 -12 5 -21 10 -21
11 0 13 11 4 34 -7 18 -39 21 -50 5z"/>
<path d="M4978 4593 c7 -3 16 -2 19 1 4 3 -2 6 -13 5 -11 0 -14 -3 -6 -6z"/>
<path d="M6743 4584 c-3 -8 2 -23 11 -32 14 -15 18 -15 31 -1 9 9 13 23 9 32
-8 21 -43 22 -51 1z m42 -14 c0 -22 -29 -18 -33 3 -3 14 1 18 15 15 10 -2 18
-10 18 -18z"/>
<path d="M6820 4576 c0 -14 4 -27 8 -30 5 -3 6 8 4 25 -5 35 -12 38 -12 5z"/>
<path d="M6891 4568 c1 -22 3 -26 6 -13 3 11 10 26 15 33 8 9 6 12 -6 12 -12
0 -16 -9 -15 -32z"/>
<path d="M7047 4593 c-11 -10 -8 -35 3 -28 6 4 8 11 5 16 -4 5 0 9 9 9 8 0 17
-6 19 -12 3 -8 6 -6 6 5 1 17 -28 24 -42 10z"/>
<path d="M7111 4568 c1 -22 3 -26 6 -13 8 31 22 42 33 25 8 -13 10 -12 10 3 0
12 -8 17 -25 17 -22 0 -25 -4 -24 -32z"/>
<path d="M7234 4586 c-9 -23 3 -46 23 -45 17 1 17 2 1 6 -22 6 -24 43 -2 43 8
0 12 -4 9 -10 -3 -5 -1 -10 5 -10 18 0 6 25 -13 28 -10 2 -20 -4 -23 -12z"/>
<path d="M7301 4568 c2 -28 2 -29 6 -8 3 14 10 28 17 32 7 5 5 8 -6 8 -14 0
-18 -8 -17 -32z"/>
<path d="M7370 4586 c0 -8 6 -17 13 -19 9 -4 8 -8 -3 -16 -13 -9 -13 -11 2
-11 25 0 34 21 13 32 -14 8 -15 12 -4 19 11 7 10 9 -3 9 -10 0 -18 -6 -18 -14z"/>
<path d="M7550 4592 c8 -4 17 -16 18 -27 6 -33 14 -33 10 0 -2 21 -9 31 -23
32 -15 2 -16 1 -5 -5z"/>
<path d="M7600 4586 c0 -8 8 -17 18 -21 16 -7 15 -8 -3 -15 -16 -7 -17 -9 -3
-9 25 -1 34 20 13 31 -14 8 -15 12 -4 19 11 7 10 9 -3 9 -10 0 -18 -6 -18 -14z"/>
<path d="M7668 4593 c7 -3 16 -2 19 1 4 3 -2 6 -13 5 -11 0 -14 -3 -6 -6z"/>
<path d="M1242 4570 c0 -14 2 -19 5 -12 2 6 2 18 0 25 -3 6 -5 1 -5 -13z"/>
<path d="M4980 4570 c13 -9 13 -11 0 -20 -13 -8 -13 -10 1 -10 9 0 19 3 22 7
9 8 -12 33 -27 33 -6 0 -4 -5 4 -10z"/>
<path d="M1632 4554 c-7 -8 -8 -14 -3 -14 10 0 25 19 20 25 -2 1 -10 -3 -17
-11z"/>
<path d="M1762 4554 c-7 -8 -8 -14 -3 -14 10 0 25 19 20 25 -2 1 -10 -3 -17
-11z"/>
<path d="M1892 4554 c-10 -12 -10 -14 2 -14 17 0 30 16 19 23 -5 3 -14 -1 -21
-9z"/>
<path d="M4545 4561 c-3 -5 -2 -12 3 -15 5 -3 9 1 9 9 0 17 -3 19 -12 6z"/>
<path d="M6857 4563 c-4 -3 -7 -11 -7 -17 0 -6 5 -5 12 2 6 6 9 14 7 17 -3 3
-9 2 -12 -2z"/>
<path d="M7535 4561 c-3 -5 -2 -12 3 -15 5 -3 9 1 9 9 0 17 -3 19 -12 6z"/>
<path d="M7672 4555 c-11 -12 -10 -15 3 -15 8 0 15 7 15 15 0 18 -2 18 -18 0z"/>
<path d="M7070 4550 c-9 -6 -10 -10 -3 -10 6 0 15 5 18 10 8 12 4 12 -15 0z"/>
<path d="M7846 4313 c-3 -4 -6 -16 -6 -29 0 -12 -15 -41 -34 -63 -19 -23 -37
-53 -40 -68 -28 -144 -33 -240 -11 -255 6 -4 13 -51 17 -105 10 -135 19 -188
28 -173 5 8 19 -3 44 -35 20 -27 36 -52 36 -56 0 -5 8 -9 18 -9 9 0 39 -8 67
-18 54 -20 70 -46 39 -69 -38 -28 -2 -23 55 7 171 91 264 292 227 488 -39 208
-184 347 -402 385 -18 4 -34 3 -38 0z m224 -105 c64 -19 82 -32 85 -62 2 -14
0 -26 -4 -26 -4 0 -8 -7 -8 -15 0 -8 4 -12 9 -9 7 5 11 -17 6 -33 -2 -4 -19
-6 -39 -4 -21 1 -40 -2 -44 -8 -10 -17 -91 -13 -105 4 -16 19 -63 19 -115 0
-22 -8 -41 -15 -41 -15 -1 0 1 21 4 48 7 63 24 86 85 117 55 28 77 28 167 3z
m-157 -193 c8 -19 -8 -28 -34 -20 -13 5 -25 2 -30 -6 -4 -7 -10 -11 -13 -8 -3
3 2 15 12 27 20 25 57 29 65 7z m-106 -27 c-3 -8 -6 -5 -6 6 -1 11 2 17 5 13
3 -3 4 -12 1 -19z m231 -5 c0 -16 3 -42 6 -60 7 -38 -17 -71 -40 -53 -7 7 -23
10 -36 8 -22 -4 -22 -5 5 -16 17 -7 25 -17 21 -23 -5 -8 -9 -8 -14 1 -5 8 -16
9 -31 4 -41 -14 -51 -13 -45 2 10 26 -33 -4 -53 -37 -17 -28 -18 -28 -34 -11
-22 24 -35 136 -17 147 7 4 23 -4 39 -19 50 -48 127 -26 155 44 18 46 45 54
44 13z m106 9 c2 -4 -4 -9 -15 -9 -10 -1 -19 2 -19 8 0 11 27 12 34 1z m-164
-21 c0 -25 -46 -61 -77 -61 -27 0 -63 16 -63 29 0 12 48 31 80 31 17 0 30 5
30 10 0 6 7 10 15 10 8 0 15 -9 15 -19z m145 -21 c3 -6 -1 -7 -9 -4 -18 7 -21
14 -7 14 6 0 13 -4 16 -10z m11 -26 c13 -3 24 -10 24 -15 0 -17 -38 -9 -61 12
-19 16 -20 19 -6 15 11 -3 30 -9 43 -12z m25 -54 c20 -11 25 -36 11 -57 -9
-15 -82 48 -82 71 0 16 23 11 71 -14z m-133 -60 c13 0 12 -3 -4 -15 -18 -14
-18 -14 8 -15 15 0 30 -4 33 -10 4 -6 -18 -10 -59 -10 -37 0 -66 -4 -66 -10 0
-5 22 -10 49 -10 62 0 74 -16 26 -36 -41 -17 -42 -37 -2 -42 30 -4 37 -31 12
-52 -17 -14 -69 -1 -71 18 -1 7 -2 16 -3 21 0 4 -17 25 -36 45 -38 41 -47 79
-17 75 9 -2 31 4 47 14 l30 16 -30 1 c-26 1 -27 3 -10 10 11 5 33 7 49 5 16
-3 36 -5 44 -5z"/>
<path d="M1115 4209 c4 -6 10 -8 13 -5 8 8 33 -15 27 -24 -3 -5 -1 -11 4 -14
5 -4 13 -1 17 5 4 7 3 9 -4 5 -6 -3 -9 1 -8 9 4 30 21 10 18 -21 -2 -22 3 -34
14 -38 12 -5 14 -13 10 -34 -5 -20 -4 -23 4 -12 9 13 10 13 10 0 0 -13 1 -13
10 0 9 13 10 13 10 0 0 -13 1 -13 10 0 7 11 10 11 10 2 0 -7 5 -10 10 -7 6 3
10 21 10 40 0 24 -9 43 -34 69 -34 37 -79 48 -89 24 -4 -10 -6 -10 -6 0 -1 6
-10 12 -22 12 -12 0 -17 -4 -14 -11z m125 -75 c0 -8 4 -13 9 -10 5 4 7 -3 4
-14 -6 -24 -24 -22 -39 5 -7 13 -7 24 -1 32 11 15 27 8 27 -13z"/>
<path d="M1220 4136 c0 -8 4 -17 9 -20 5 -4 7 3 4 14 -6 23 -13 26 -13 6z"/>
<path d="M1085 4160 c-3 -5 -2 -10 4 -10 5 0 13 5 16 10 3 6 2 10 -4 10 -5 0
-13 -4 -16 -10z"/>
<path d="M3890 4146 c0 -8 -6 -16 -13 -18 -11 -2 -11 -6 2 -20 15 -15 16 -13
18 18 1 19 0 34 -3 34 -2 0 -4 -6 -4 -14z"/>
<path d="M4091 4144 c0 -11 3 -14 6 -6 3 7 2 16 -1 19 -3 4 -6 -2 -5 -13z"/>
<path d="M4125 4150 c-3 -6 1 -7 9 -4 20 8 21 -10 1 -26 -20 -17 -19 -30 3
-29 11 0 12 2 4 6 -10 4 -10 9 3 23 9 10 14 24 10 29 -8 14 -22 14 -30 1z"/>
<path d="M4335 4151 c-3 -5 -1 -12 5 -16 5 -3 10 1 10 9 0 18 -6 21 -15 7z"/>
<path d="M4370 4156 c0 -9 30 -14 35 -6 4 6 -3 10 -14 10 -12 0 -21 -2 -21 -4z"/>
<path d="M5619 4153 c-9 -57 -7 -63 14 -63 13 0 17 3 11 8 -6 4 -11 16 -11 27
0 11 5 23 11 27 7 5 4 8 -6 8 -10 0 -19 -3 -19 -7z"/>
<path d="M5677 4153 c-2 -5 -1 -19 4 -33 7 -23 7 -23 8 8 1 31 -3 40 -12 25z"/>
<path d="M5790 4151 c0 -6 6 -8 14 -5 10 4 16 -3 19 -20 4 -26 4 -26 3 1 -1
18 -7 29 -18 31 -10 2 -18 -1 -18 -7z"/>
<path d="M5866 4153 c7 -4 14 -17 17 -28 5 -16 5 -15 4 4 -1 14 -9 26 -17 28
-10 3 -11 2 -4 -4z"/>
<path d="M6027 4153 c-4 -3 -7 -19 -7 -35 0 -20 5 -28 18 -28 10 0 13 3 6 8
-6 4 -11 16 -11 27 0 11 5 23 11 27 8 6 8 8 0 8 -6 0 -14 -3 -17 -7z"/>
<path d="M6135 4149 c-11 -16 -1 -19 13 -3 7 8 8 14 3 14 -5 0 -13 -5 -16 -11z"/>
<path d="M4025 4141 c-3 -5 -1 -12 5 -16 5 -3 10 1 10 9 0 18 -6 21 -15 7z"/>
<path d="M1884 4120 c0 -11 4 -20 8 -20 4 0 8 9 8 20 0 11 -4 20 -8 20 -4 0
-8 -9 -8 -20z"/>
<path d="M2001 4110 c-1 -29 3 -36 18 -36 11 0 17 5 14 13 -3 7 -9 13 -13 13
-5 0 -11 10 -13 23 -3 14 -5 10 -6 -13z"/>
<path d="M3086 4132 c-3 -5 1 -9 9 -9 8 0 12 4 9 9 -3 4 -7 8 -9 8 -2 0 -6 -4
-9 -8z"/>
<path d="M3997 4119 c4 -13 8 -18 11 -10 2 7 -1 18 -6 23 -8 8 -9 4 -5 -13z"/>
<path d="M4307 4121 c-4 -18 -10 -22 -24 -17 -14 6 -16 5 -5 -5 10 -11 15 -10
28 3 9 9 14 22 12 29 -3 8 -7 4 -11 -10z"/>
<path d="M5730 4124 c0 -8 5 -12 10 -9 6 4 8 11 5 16 -9 14 -15 11 -15 -7z"/>
<path d="M1390 4120 c0 -5 9 -14 20 -20 11 -6 17 -16 14 -22 -4 -7 -3 -8 4 -4
16 9 16 9 -13 34 -14 12 -25 18 -25 12z"/>
<path d="M2080 4121 c0 -6 4 -13 10 -16 6 -3 7 1 4 9 -7 18 -14 21 -14 7z"/>
<path d="M2112 4110 c0 -14 2 -19 5 -12 2 6 2 18 0 25 -3 6 -5 1 -5 -13z"/>
<path d="M2196 4103 c10 -40 14 -41 14 -5 0 18 -5 32 -10 32 -6 0 -8 -11 -4
-27z"/>
<path d="M2232 4100 c0 -19 2 -27 5 -17 2 9 2 25 0 35 -3 9 -5 1 -5 -18z"/>
<path d="M3130 4121 c0 -6 5 -13 10 -16 6 -3 10 1 10 9 0 9 -4 16 -10 16 -5 0
-10 -4 -10 -9z"/>
<path d="M3197 4123 c-9 -9 -9 -41 1 -46 4 -3 7 8 7 24 0 16 0 29 -1 29 0 0
-4 -3 -7 -7z"/>
<path d="M3285 4100 c0 -15 3 -26 8 -23 4 2 7 13 7 23 0 10 -3 21 -7 23 -5 3
-8 -8 -8 -23z"/>
<path d="M3313 4115 c-3 -9 -3 -18 -1 -21 3 -3 8 4 11 16 6 23 -1 27 -10 5z"/>
<path d="M3913 4116 c1 -11 9 -21 17 -23 10 -3 11 -2 4 4 -6 4 -14 15 -17 23
-5 11 -6 9 -4 -4z"/>
<path d="M4232 4118 c-17 -17 -15 -28 6 -27 11 0 12 2 4 6 -10 4 -10 8 -1 19
14 17 8 19 -9 2z"/>
<path d="M5970 4119 c0 -5 5 -7 10 -4 6 3 10 8 10 11 0 2 -4 4 -10 4 -5 0 -10
-5 -10 -11z"/>
<path d="M6157 4113 c5 -13 3 -15 -13 -9 -14 5 -16 4 -7 -5 6 -6 16 -8 22 -5
14 9 15 36 1 36 -5 0 -6 -8 -3 -17z"/>
<path d="M1445 4110 c3 -5 8 -10 11 -10 2 0 4 5 4 10 0 6 -5 10 -11 10 -5 0
-7 -4 -4 -10z"/>
<path d="M1618 4093 c5 -21 7 -23 10 -9 2 10 0 22 -6 28 -6 6 -7 0 -4 -19z"/>
<path d="M1680 4110 c-12 -7 -10 -9 7 -7 12 0 19 5 17 9 -6 10 -6 10 -24 -2z"/>
<path d="M1733 4105 c-3 -9 -3 -18 -1 -21 3 -3 8 4 11 16 6 23 -1 27 -10 5z"/>
<path d="M1786 4111 c-3 -5 2 -15 12 -22 15 -13 16 -12 4 3 -10 13 -10 17 0
21 9 4 9 6 1 6 -6 1 -14 -3 -17 -8z"/>
<path d="M1938 4093 c5 -21 7 -23 10 -9 2 10 0 22 -6 28 -6 6 -7 0 -4 -19z"/>
<path d="M3228 4097 c-3 -19 -2 -25 4 -19 6 6 8 18 6 28 -3 14 -5 12 -10 -9z"/>
<path d="M6080 4107 c0 -10 8 -17 18 -17 9 0 13 4 7 8 -5 4 -13 11 -17 16 -5
5 -8 2 -8 -7z"/>
<path d="M3075 4100 c3 -5 11 -10 16 -10 6 0 7 5 4 10 -3 6 -11 10 -16 10 -6
0 -7 -4 -4 -10z"/>
<path d="M1178 4003 c7 -3 16 -2 19 1 4 3 -2 6 -13 5 -11 0 -14 -3 -6 -6z"/>
<path d="M3870 3773 c8 -3 19 -11 23 -17 6 -7 7 -6 4 4 -2 8 -12 16 -23 17
-13 2 -15 1 -4 -4z"/>
<path d="M4027 3763 c-2 -5 -1 -19 4 -33 7 -23 7 -23 8 8 1 31 -3 40 -12 25z"/>
<path d="M4115 3760 c3 -5 8 -10 11 -10 2 0 4 5 4 10 0 6 -5 10 -11 10 -5 0
-7 -4 -4 -10z"/>
<path d="M4150 3760 c0 -5 5 -10 10 -10 6 0 10 5 10 10 0 6 -4 10 -10 10 -5 0
-10 -4 -10 -10z"/>
<path d="M4340 3760 c0 -5 5 -10 10 -10 6 0 10 5 10 10 0 6 -4 10 -10 10 -5 0
-10 -4 -10 -10z"/>
<path d="M4404 3740 c0 -16 3 -27 6 -25 8 5 6 42 -1 50 -3 2 -5 -8 -5 -25z"/>
<path d="M5707 3763 c-2 -5 -1 -19 4 -33 7 -23 7 -23 8 8 1 31 -3 40 -12 25z"/>
<path d="M5820 3756 c0 -8 4 -17 9 -20 5 -4 7 3 4 14 -6 23 -13 26 -13 6z"/>
<path d="M5909 3742 c-3 -20 -2 -29 4 -23 5 5 7 19 5 32 -3 20 -5 19 -9 -9z"/>
<path d="M6107 3751 c-4 -17 -3 -21 5 -13 5 5 8 16 6 23 -3 8 -7 3 -11 -10z"/>
<path d="M3860 3742 c0 -4 9 -13 20 -19 16 -11 18 -10 14 1 -6 15 -34 30 -34
18z"/>
<path d="M3997 3729 c4 -13 8 -18 11 -10 2 7 -1 18 -6 23 -8 8 -9 4 -5 -13z"/>
<path d="M5650 3740 c0 -5 5 -10 11 -10 5 0 7 5 4 10 -3 6 -8 10 -11 10 -2 0
-4 -4 -4 -10z"/>
<path d="M5847 3731 c-4 -17 -3 -21 5 -13 5 5 8 16 6 23 -3 8 -7 3 -11 -10z"/>
<path d="M5975 3741 c-3 -5 -1 -12 5 -16 5 -3 10 1 10 9 0 18 -6 21 -15 7z"/>
<path d="M6028 3732 c-5 -18 -2 -22 15 -22 13 0 17 3 11 8 -6 4 -13 14 -16 22
-3 10 -6 8 -10 -8z"/>
<path d="M3910 3731 c0 -6 4 -13 10 -16 6 -3 7 1 4 9 -7 18 -14 21 -14 7z"/>
<path d="M5796 3723 c-6 -14 -5 -15 5 -6 7 7 10 15 7 18 -3 3 -9 -2 -12 -12z"/>
<path d="M4105 3720 c-19 -8 -19 -9 3 -9 12 -1 22 4 22 9 0 6 -1 10 -2 9 -2 0
-12 -4 -23 -9z"/>
<path d="M4225 3720 c-4 -6 3 -10 14 -10 25 0 27 6 6 13 -8 4 -17 2 -20 -3z"/>
<path d="M4280 3719 c0 -5 9 -9 20 -9 11 0 20 2 20 4 0 2 -9 6 -20 9 -11 3
-20 1 -20 -4z"/>
<path d="M5648 3713 c6 -2 18 -2 25 0 6 3 1 5 -13 5 -14 0 -19 -2 -12 -5z"/>
<path d="M6088 3713 c7 -3 16 -2 19 1 4 3 -2 6 -13 5 -11 0 -14 -3 -6 -6z"/>
<path d="M6148 3713 c7 -3 16 -2 19 1 4 3 -2 6 -13 5 -11 0 -14 -3 -6 -6z"/>
<path d="M7678 3507 c-54 -28 -98 -53 -98 -57 0 -15 154 -70 198 -70 27 0 27
-2 2 55 -24 57 -25 84 -3 100 9 7 12 14 7 17 -5 3 -53 -18 -106 -45z"/>
<path d="M7283 3143 c-7 -2 -13 -9 -13 -15 0 -6 6 -6 15 2 8 7 24 10 35 7 11
-3 18 -1 14 4 -6 10 -31 11 -51 2z"/>
<path d="M7993 3143 c-7 -2 -13 -12 -13 -21 0 -14 2 -13 13 2 21 29 52 16 52
-21 0 -17 3 -29 7 -26 12 7 9 48 -4 61 -12 12 -33 14 -55 5z"/>
<path d="M8110 3106 c0 -38 3 -46 18 -46 29 0 40 18 33 53 -5 23 -13 33 -29
35 -20 3 -22 -1 -22 -42z m40 19 c0 -8 -7 -15 -15 -15 -8 0 -15 7 -15 15 0 8
7 15 15 15 8 0 15 -7 15 -15z m3 -40 c1 -5 -6 -11 -15 -13 -11 -2 -18 3 -18
13 0 17 30 18 33 0z"/>
<path d="M7762 3105 c0 -22 3 -30 5 -17 6 31 31 28 36 -5 4 -26 4 -26 6 5 1
25 -3 32 -18 32 -11 0 -22 6 -24 13 -3 6 -5 -6 -5 -28z"/>
<path d="M7570 3101 c0 -17 4 -32 8 -35 4 -2 8 11 8 30 0 19 -4 34 -8 34 -4 0
-8 -13 -8 -29z"/>
<path d="M7360 3109 c0 -6 8 -8 19 -4 15 4 21 0 24 -17 4 -20 4 -20 6 5 1 23
-3 27 -24 27 -14 0 -25 -5 -25 -11z"/>
<path d="M7431 3093 c0 -16 3 -22 6 -13 3 8 10 21 16 28 7 8 5 12 -7 12 -11 0
-16 -8 -15 -27z"/>
<path d="M7482 3095 c0 -16 2 -22 5 -12 2 9 2 23 0 30 -3 6 -5 -1 -5 -18z"/>
<path d="M7510 3109 c0 -7 8 -18 18 -26 16 -14 16 -14 -3 -8 -16 5 -18 4 -7
-6 10 -11 14 -11 25 0 10 10 8 15 -6 26 -18 13 -18 13 0 18 14 4 14 5 -4 6
-13 0 -23 -4 -23 -10z"/>
<path d="M7617 3113 c-13 -12 -7 -41 10 -47 21 -9 46 16 37 37 -6 17 -35 23
-47 10z m38 -23 c0 -22 -29 -18 -33 3 -3 14 1 18 15 15 10 -2 18 -10 18 -18z"/>
<path d="M7690 3112 c0 -6 9 -8 20 -5 15 4 20 0 20 -15 0 -11 -5 -23 -10 -25
-6 -3 -5 -4 2 -3 7 2 13 14 13 27 0 17 -6 25 -22 27 -13 2 -23 -1 -23 -6z"/>
<path d="M7834 3106 c-9 -23 3 -46 23 -45 17 1 17 2 1 6 -25 6 -22 23 3 23 12
0 19 5 17 13 -7 18 -37 21 -44 3z m33 -2 c-3 -3 -12 -4 -19 -1 -8 3 -5 6 6 6
11 1 17 -2 13 -5z"/>
<path d="M7901 3093 c1 -22 2 -23 6 -8 3 11 10 23 17 27 7 5 5 8 -6 8 -13 0
-18 -7 -17 -27z"/>
<path d="M8184 3105 c-10 -26 1 -35 13 -10 6 14 7 25 2 25 -5 0 -12 -7 -15
-15z"/>
<path d="M8232 3095 c0 -16 2 -22 5 -12 2 9 2 23 0 30 -3 6 -5 -1 -5 -18z"/>
<path d="M8264 3105 c-13 -32 23 -63 40 -36 4 5 -3 7 -14 4 -11 -3 -20 0 -20
6 0 6 9 11 20 11 22 0 27 15 8 26 -7 4 -8 3 -4 -4 4 -7 1 -12 -9 -12 -9 0 -13
5 -10 10 3 6 4 10 0 10 -3 0 -8 -7 -11 -15z"/>
<path d="M8331 3093 c2 -23 2 -24 6 -5 5 27 30 29 36 2 4 -17 4 -16 3 2 -1 16
-8 24 -23 26 -20 3 -23 -1 -22 -25z"/>
<path d="M7270 3093 c0 -30 58 -43 68 -15 3 11 1 11 -18 0 -18 -11 -23 -11
-36 6 -8 11 -14 15 -14 9z"/>
<path d="M7980 3094 c0 -17 27 -37 42 -31 8 4 7 6 -4 6 -9 1 -22 9 -27 19 -6
9 -11 12 -11 6z"/>
<path d="M7691 3074 c0 -11 3 -14 6 -6 3 7 2 16 -1 19 -3 4 -6 -2 -5 -13z"/>
<path d="M3916 2564 c-9 -8 -16 -22 -16 -29 0 -7 7 -21 16 -29 30 -30 74 -13
74 29 0 42 -44 59 -74 29z"/>
<path d="M1400 1570 c-13 -8 -12 -18 2 -87 14 -67 14 -80 2 -97 -58 -83 68
-182 166 -131 42 22 50 43 50 134 0 73 -2 81 -19 81 -27 0 -46 28 -46 69 0 29
-4 37 -22 39 -19 3 -24 -5 -39 -55 l-17 -58 -14 30 c-14 30 -14 30 -8 3 3 -16
8 -39 11 -52 4 -18 1 -25 -15 -29 -17 -4 -23 1 -31 33 -16 59 -17 112 -2 117
6 3 16 -6 21 -19 6 -13 10 -17 10 -7 1 14 -17 39 -28 39 -4 0 -13 -4 -21 -10z
m150 -17 c0 -10 -7 -31 -15 -47 -8 -15 -15 -41 -15 -57 0 -23 -5 -29 -21 -29
-15 0 -19 5 -15 18 3 9 10 37 16 62 6 25 13 51 15 58 7 19 35 14 35 -5z m21
-102 c0 -10 2 -11 6 -3 9 24 33 13 33 -16 0 -33 -8 -45 -24 -34 -6 4 -20 7
-31 7 -15 0 -21 8 -23 28 -5 43 5 62 23 47 8 -7 15 -20 16 -29z m-43 -63 c3
-13 -3 -18 -21 -18 -14 0 -30 -6 -36 -14 -10 -12 -7 -12 21 -2 18 6 42 17 54
23 11 7 30 9 42 6 32 -8 31 -71 -2 -102 -49 -46 -143 -36 -171 20 -20 38 -19
51 6 83 18 23 28 27 63 24 29 -2 42 -8 44 -20z"/>
<path d="M4180 1545 c-8 -10 -11 -52 -8 -139 4 -165 5 -166 143 -166 133 0
135 2 135 136 l0 100 -43 42 -43 42 -86 0 c-63 0 -89 -4 -98 -15z m180 -40 c5
-38 7 -40 43 -43 l37 -3 0 -94 c0 -116 -1 -117 -137 -113 -93 3 -98 4 -110 28
-14 27 -19 251 -6 264 4 4 43 5 88 4 l80 -3 5 -40z m45 -5 l29 -30 -32 0 c-29
0 -32 3 -32 30 0 17 1 30 3 30 2 0 16 -13 32 -30z"/>
<path d="M4261 1404 c-12 -15 -21 -38 -20 -53 1 -22 2 -21 9 9 14 59 70 80
110 40 61 -61 -18 -142 -90 -93 l-25 17 19 -22 c43 -49 126 -14 126 53 0 68
-88 101 -129 49z"/>
<path d="M4299 1373 c-8 -10 -9 -14 -2 -10 7 5 13 -2 16 -20 l4 -28 2 28 c1
20 5 26 14 21 8 -5 8 -2 -2 9 -7 9 -15 17 -16 17 -1 0 -9 -8 -16 -17z"/>
<path d="M5650 1534 c-8 -21 -15 -25 -34 -20 -20 5 -29 0 -47 -25 -16 -23 -19
-33 -10 -42 13 -13 15 -79 1 -93 -6 -6 -2 -21 11 -41 16 -26 24 -31 38 -24 20
11 35 4 44 -21 5 -13 17 -18 47 -18 32 0 40 4 39 18 0 10 -3 12 -6 5 -8 -22
-54 -14 -80 13 -15 16 -30 24 -40 20 -30 -12 -39 11 -38 91 2 87 14 124 37
106 15 -13 40 1 51 30 9 25 57 23 64 -3 5 -20 44 -37 61 -26 6 3 17 -5 26 -19
10 -15 12 -26 6 -30 -6 -3 -9 -21 -9 -38 2 -27 2 -28 6 -7 3 14 10 31 16 38
17 21 -24 68 -57 64 -20 -2 -28 3 -36 23 -8 20 -16 25 -45 25 -29 0 -37 -5
-45 -26z"/>
<path d="M2920 1519 c-30 -5 -86 -8 -125 -7 l-70 1 0 -108 0 -109 40 -10 c27
-6 62 -5 108 2 37 7 97 12 132 12 l65 0 0 110 c0 101 -2 110 -19 110 -10 0
-31 2 -47 4 -16 2 -54 0 -84 -5z m140 -110 l0 -100 -47 3 c-27 1 -88 -4 -138
-11 -67 -10 -97 -10 -117 -2 -28 10 -28 11 -28 106 l0 95 73 1 c39 1 99 4 132
8 33 3 75 4 93 2 l32 -3 0 -99z"/>
<path d="M3000 1496 c0 -2 9 -6 20 -9 11 -3 20 -1 20 4 0 5 -9 9 -20 9 -11 0
-20 -2 -20 -4z"/>
<path d="M2768 1473 c7 -3 16 -2 19 1 4 3 -2 6 -13 5 -11 0 -14 -3 -6 -6z"/>
<path d="M2862 1438 c-21 -21 -14 -57 14 -70 31 -14 57 -1 62 31 7 42 -46 69
-76 39z m66 -30 c2 -20 -2 -28 -19 -33 -29 -9 -53 15 -44 44 10 34 59 25 63
-11z"/>
<path d="M3018 1333 c7 -3 16 -2 19 1 4 3 -2 6 -13 5 -11 0 -14 -3 -6 -6z"/>
<path d="M2767 1319 c7 -7 15 -10 18 -7 3 3 -2 9 -12 12 -14 6 -15 5 -6 -5z"/>
<path d="M8486 1514 c-9 -8 -16 -20 -16 -25 0 -5 -18 -9 -40 -9 -66 0 -80 -23
-80 -128 0 -123 -2 -122 178 -122 172 0 172 0 172 127 0 100 -15 123 -80 123
-22 0 -40 4 -40 9 0 18 -31 41 -55 41 -13 0 -31 -7 -39 -16z m65 -4 c32 -18
21 -30 -26 -30 -47 0 -58 12 -27 29 22 13 29 13 53 1z m123 -56 c12 -11 16
-36 16 -95 0 -123 5 -119 -165 -119 -170 0 -165 -4 -165 119 0 111 0 111 165
111 108 0 137 -3 149 -16z"/>
<path d="M8500 1400 c0 -13 -7 -20 -20 -20 -15 0 -20 -7 -20 -25 0 -18 5 -25
20 -25 13 0 20 -7 20 -20 0 -15 6 -20 28 -19 23 2 24 2 5 6 -15 3 -23 12 -23
24 0 12 -7 19 -20 19 -11 0 -20 7 -20 15 0 8 9 15 20 15 14 0 20 7 20 21 0 16
5 20 20 16 11 -3 20 -1 20 4 0 5 -11 9 -25 9 -18 0 -25 -5 -25 -20z"/>
<path d="M8550 1381 c0 -5 9 -11 21 -14 23 -6 17 -27 -7 -27 -8 0 -14 -4 -14
-10 0 -6 9 -6 23 -1 12 5 22 16 22 26 0 10 -10 21 -22 26 -13 5 -23 5 -23 0z"/>
<path d="M5662 1438 c-7 -7 -12 -17 -12 -22 0 -6 5 -3 11 7 22 37 88 10 74
-32 -9 -29 -42 -36 -66 -15 -10 9 -19 12 -19 6 0 -12 31 -32 49 -32 16 0 51
38 51 54 0 37 -61 61 -88 34z"/>
<path d="M1485 1017 c13 -10 16 -21 11 -40 -4 -16 -2 -27 4 -27 5 0 10 13 10
28 0 28 -16 52 -34 52 -5 0 -2 -6 9 -13z"/>
<path d="M2487 1017 c-3 -8 1 -14 9 -14 16 0 19 13 5 21 -5 3 -11 0 -14 -7z"/>
<path d="M4278 1023 c7 -3 16 -2 19 1 4 3 -2 6 -13 5 -11 0 -14 -3 -6 -6z"/>
<path d="M5304 1015 c-8 -19 4 -35 24 -34 15 1 15 2 0 6 -21 5 -24 29 -5 36 9
4 9 6 -1 6 -7 1 -15 -6 -18 -14z"/>
<path d="M8240 995 c0 -34 1 -34 20 -18 24 21 25 24 5 17 -10 -4 -15 0 -15 11
0 11 5 15 16 11 8 -3 12 -2 9 4 -15 24 -35 9 -35 -25z"/>
<path d="M1291 994 c-1 -21 4 -31 14 -31 8 0 13 3 10 5 -3 3 1 12 8 21 10 14
10 14 -5 3 -14 -11 -17 -10 -21 10 -3 18 -5 17 -6 -8z"/>
<path d="M3922 990 c0 -19 2 -27 5 -17 2 9 2 25 0 35 -3 9 -5 1 -5 -18z"/>
<path d="M4313 990 c0 -23 3 -28 9 -16 5 9 5 23 0 32 -6 12 -9 7 -9 -16z"/>
<path d="M5735 1011 c-3 -5 -1 -12 5 -16 5 -3 10 1 10 9 0 18 -6 21 -15 7z"/>
<path d="M8701 990 c-1 -24 2 -31 8 -21 5 7 13 11 17 8 5 -3 10 7 11 21 1 24
0 24 -10 7 -10 -19 -10 -19 -18 0 -6 15 -8 12 -8 -15z"/>
<path d="M1685 1000 c-3 -5 -1 -10 4 -10 6 0 11 5 11 10 0 6 -2 10 -4 10 -3 0
-8 -4 -11 -10z"/>
<path d="M3310 991 c0 -25 6 -27 13 -6 4 8 2 17 -3 20 -6 4 -10 -3 -10 -14z"/>
<path d="M4707 1003 c-3 -5 -1 -17 4 -28 7 -17 8 -17 8 8 1 27 -4 34 -12 20z"/>
<path d="M5417 1003 c-3 -5 -1 -17 4 -28 7 -17 8 -17 8 8 1 27 -4 34 -12 20z"/>
<path d="M5450 1000 c0 -5 5 -10 11 -10 5 0 7 5 4 10 -3 6 -8 10 -11 10 -2 0
-4 -4 -4 -10z"/>
<path d="M6020 986 c0 -31 6 -34 13 -6 3 11 1 23 -4 26 -5 3 -9 -6 -9 -20z"/>
<path d="M8345 1000 c-3 -5 -1 -10 4 -10 6 0 11 5 11 10 0 6 -2 10 -4 10 -3 0
-8 -4 -11 -10z"/>
<path d="M8790 991 c0 -25 6 -27 13 -6 4 8 2 17 -3 20 -6 4 -10 -3 -10 -14z"/>
<path d="M1178 983 c-4 -14 1 -18 24 -18 19 0 27 4 23 13 -3 8 -5 17 -5 20 0
4 -5 0 -10 -8 -8 -12 -12 -13 -19 -2 -6 11 -9 10 -13 -5z"/>
<path d="M1245 991 c-3 -5 0 -13 6 -17 7 -4 9 -3 5 4 -3 5 0 13 6 15 9 4 10 6
1 6 -6 1 -14 -3 -18 -8z"/>
<path d="M1387 980 c3 -11 9 -20 14 -20 11 0 11 3 3 24 -9 23 -23 20 -17 -4z"/>
<path d="M1587 993 c-10 -10 -8 -23 4 -23 5 0 7 5 3 11 -4 8 1 9 16 4 15 -5
20 -4 16 4 -8 12 -29 15 -39 4z"/>
<path d="M1640 991 c0 -5 8 -15 18 -22 15 -12 16 -12 5 2 -7 9 -10 19 -6 22 3
4 1 7 -5 7 -7 0 -12 -4 -12 -9z"/>
<path d="M1722 980 c0 -14 2 -19 5 -12 2 6 2 18 0 25 -3 6 -5 1 -5 -13z"/>
<path d="M1762 994 c9 -3 19 -13 22 -22 3 -12 4 -12 3 3 -1 12 -10 21 -22 22
-15 1 -15 0 -3 -3z"/>
<path d="M1818 993 c7 -3 16 -2 19 1 4 3 -2 6 -13 5 -11 0 -14 -3 -6 -6z"/>
<path d="M2541 968 c2 -32 2 -32 6 -5 3 20 9 27 19 23 8 -3 14 -1 14 4 0 6 -9
10 -20 10 -16 0 -20 -6 -19 -32z"/>
<path d="M2602 970 c0 -19 2 -27 5 -17 2 9 2 25 0 35 -3 9 -5 1 -5 -18z"/>
<path d="M2625 990 c3 -5 8 -10 11 -10 2 0 4 5 4 10 0 6 -5 10 -11 10 -5 0 -7
-4 -4 -10z"/>
<path d="M2795 990 c-4 -6 -4 -14 -1 -17 3 -4 6 -1 6 5 0 19 28 14 34 -5 4
-14 4 -14 3 2 -2 22 -31 32 -42 15z"/>
<path d="M2855 990 c-3 -5 -1 -10 4 -10 6 0 11 5 11 10 0 6 -2 10 -4 10 -3 0
-8 -4 -11 -10z"/>
<path d="M2926 992 c6 -4 14 -14 17 -22 4 -10 6 -8 6 8 1 15 -5 22 -16 22 -11
0 -14 -3 -7 -8z"/>
<path d="M3080 990 c20 -13 33 -13 25 0 -3 6 -14 10 -23 10 -15 0 -15 -2 -2
-10z"/>
<path d="M3121 968 c2 -30 2 -30 6 -6 2 15 12 29 21 31 12 3 10 5 -5 6 -20 1
-23 -4 -22 -31z"/>
<path d="M3186 991 c-4 -5 3 -7 14 -4 23 6 26 13 6 13 -8 0 -17 -4 -20 -9z"/>
<path d="M3240 991 c0 -5 8 -15 18 -22 15 -12 16 -12 5 2 -7 9 -10 19 -6 22 3
4 1 7 -5 7 -7 0 -12 -4 -12 -9z"/>
<path d="M3984 985 c-4 -9 -1 -22 6 -28 9 -9 11 -8 8 7 -4 25 19 33 26 9 4
-15 5 -15 3 2 -3 25 -35 32 -43 10z"/>
<path d="M4076 992 c-2 -4 4 -8 15 -8 10 0 19 4 19 8 0 4 -6 8 -14 8 -8 0 -17
-4 -20 -8z"/>
<path d="M4183 985 c-3 -9 -3 -19 1 -22 3 -4 6 2 6 11 0 12 5 16 15 12 8 -3
15 -1 15 4 0 16 -30 11 -37 -5z"/>
<path d="M4350 996 c0 -2 7 -7 16 -10 8 -3 12 -2 9 4 -6 10 -25 14 -25 6z"/>
<path d="M4408 993 c7 -3 16 -2 19 1 4 3 -2 6 -13 5 -11 0 -14 -3 -6 -6z"/>
<path d="M4510 991 c0 -5 12 -7 26 -5 37 4 39 11 4 12 -16 0 -30 -3 -30 -7z"/>
<path d="M4593 985 c-3 -9 -3 -19 1 -22 3 -4 6 1 6 10 0 20 16 23 23 5 3 -8 6
-6 6 5 1 21 -27 23 -36 2z"/>
<path d="M4650 991 c0 -6 6 -8 14 -5 8 3 16 -2 20 -13 4 -15 5 -15 3 2 -2 20
-37 35 -37 16z"/>
<path d="M5364 985 c-4 -9 -4 -19 0 -22 3 -4 6 1 6 10 0 19 15 23 23 7 3 -6 4
-5 3 2 -4 19 -25 21 -32 3z"/>
<path d="M5511 978 c1 -16 3 -18 6 -6 2 9 12 19 21 21 12 3 10 5 -5 6 -18 1
-23 -4 -22 -21z"/>
<path d="M5586 992 c7 -4 14 -18 17 -32 4 -21 4 -20 6 8 1 24 -3 32 -16 32
-12 0 -14 -3 -7 -8z"/>
<path d="M5630 989 c0 -5 5 -7 10 -4 6 3 10 8 10 11 0 2 -4 4 -10 4 -5 0 -10
-5 -10 -11z"/>
<path d="M5792 980 c0 -14 2 -19 5 -12 2 6 2 18 0 25 -3 6 -5 1 -5 -13z"/>
<path d="M5822 980 c0 -14 2 -19 5 -12 2 6 2 18 0 25 -3 6 -5 1 -5 -13z"/>
<path d="M5850 991 c0 -6 6 -8 14 -5 8 3 16 -2 20 -13 4 -15 5 -15 3 2 -2 20
-37 35 -37 16z"/>
<path d="M5907 985 c-4 -8 -2 -17 4 -20 5 -4 8 -1 7 6 -5 19 20 22 25 2 4 -14
5 -13 6 5 1 25 -33 32 -42 7z"/>
<path d="M5976 992 c6 -4 14 -14 17 -22 4 -10 6 -8 6 8 1 15 -5 22 -16 22 -11
0 -14 -3 -7 -8z"/>
<path d="M6057 993 c-10 -10 -8 -23 4 -23 5 0 7 5 4 10 -3 6 -2 10 4 10 5 0
12 -6 14 -12 3 -8 6 -6 6 5 1 17 -19 23 -32 10z"/>
<path d="M8306 992 c6 -4 14 -14 17 -22 4 -10 6 -8 6 8 1 15 -5 22 -16 22 -11
0 -14 -3 -7 -8z"/>
<path d="M8383 985 c-3 -9 -3 -19 1 -22 3 -4 6 1 6 10 0 8 8 18 18 20 16 4 16
5 -1 6 -10 0 -20 -6 -24 -14z"/>
<path d="M8440 990 c0 -5 7 -7 15 -4 8 4 15 8 15 10 0 2 -7 4 -15 4 -8 0 -15
-4 -15 -10z"/>
<path d="M8613 985 c-3 -9 -3 -19 1 -22 3 -4 6 1 6 10 0 8 8 18 18 20 16 4 16
5 -1 6 -10 0 -20 -6 -24 -14z"/>
<path d="M1531 974 c0 -11 3 -14 6 -6 3 7 2 16 -1 19 -3 4 -6 -2 -5 -13z"/>
<path d="M2490 981 c-24 -7 -24 -8 6 -12 24 -4 31 -2 27 8 -3 7 -6 13 -7 12 0
-1 -12 -4 -26 -8z"/>
<path d="M4481 974 c0 -11 3 -14 6 -6 3 7 2 16 -1 19 -3 4 -6 -2 -5 -13z"/>
<path d="M8520 975 c0 -8 10 -10 25 -7 29 5 25 15 -5 17 -11 1 -20 -4 -20 -10z"/>
<path d="M8591 974 c0 -11 3 -14 6 -6 3 7 2 16 -1 19 -3 4 -6 -2 -5 -13z"/>
<path d="M2693 962 c1 -14 5 -18 11 -12 7 7 6 14 -1 21 -9 9 -12 7 -10 -9z"/>
<path d="M4155 970 c3 -5 8 -10 11 -10 2 0 4 5 4 10 0 6 -5 10 -11 10 -5 0 -7
-4 -4 -10z"/>
</g>
</svg>
